<?xml version="1.0" encoding="UTF-8"?>
<svg width="68px" height="57px" viewBox="0 0 68 57" version="1.1" xmlns="http://www.w3.org/2000/svg" xmlns:xlink="http://www.w3.org/1999/xlink">
  <g stroke="none" stroke-width="1" fill="none" fill-rule="evenodd">
    <g transform="translate(-389.000000, -1737.000000)" stroke="#7361C1" stroke-width="2">
      <g transform="translate(390.000000, 1738.000000)">
        <path d="M7.17391304,44.8684211 C7.17391304,44.4761842 5.7836087,44.275 4.8926087,44.275 C2.18947826,44.275 0,46.4851316 0,49.2105263 L0,4.34210526 C0,1.61671053 2.18947826,0 4.8926087,0 C5.7836087,0 7.17391304,0.425526316 7.17391304,1.44736842 L7.17391304,44.8684211 Z" stroke-linejoin="round"></path>
        <polyline id="Stroke-3" stroke-linejoin="round" points="53.0869565 26.0526316 53.0869565 5.78947368 7.17391304 5.78947368"></polyline>
        <path d="M0,49.2105263 C0,52.4077632 2.56969565,55 5.73913043,55 L53.0869565,55 L53.0869565,37.6315789" stroke-linejoin="round"></path>
        <path d="M63.6033391,21.3536053 C65.1170348,22.8805789 65.3609478,24.3134737 65.2590783,25.1066316 L45.9827739,44.5491316 C42.4948174,48.0676842 37.3109478,47.7695263 37.3109478,47.7695263 C37.3109478,47.7695263 37.0153826,42.5401842 40.5033391,39.0216316 L59.7796435,19.5791316 C60.5659043,19.4763684 61.9877739,19.7238684 63.5000348,21.2493947 L63.6033391,21.3536053 Z"></path>
        <path d="M56.7018913,22.5790921 L62.1813261,28.1065921"></path>
        <polyline stroke-linejoin="round" points="33 46.3157895 17.2173913 46.3157895 17.2173913 14.4736842 43.0434783 14.4736842 43.0434783 24.6052632 35.8695652 24.6052632 35.8695652 34.7368421 28.6956522 34.7368421 28.6956522 39.0789474"></polyline>
        <path d="M35.8695652,24.6052632 L27.2608696,24.6052632" stroke-linejoin="round"></path>
        <path d="M17.2173913,24.6052632 L24.3913043,24.6052632" stroke-linejoin="round"></path>
        <path d="M28.6956522,34.7368421 L28.6956522,28.9473684" stroke-linejoin="round"></path>
      </g>
    </g>
  </g>
</svg>
