<?xml version="1.0" encoding="UTF-8"?>
<svg width="73px" height="55px" viewBox="0 0 73 55" version="1.1" xmlns="http://www.w3.org/2000/svg" xmlns:xlink="http://www.w3.org/1999/xlink">
  <defs>
      <polygon points="0 55 73 55 73 0 0 0"></polygon>
  </defs>
  <g stroke="none" stroke-width="1" fill="none" fill-rule="evenodd">
    <g transform="translate(-387.000000, -2023.000000)">
      <g transform="translate(387.000000, 2023.000000)">
        <path d="M12.1666667,41.25 L7.60416667,41.25" stroke="#373737" stroke-width="2"></path>
        <polyline stroke="#373737" stroke-width="2" points="7.60416667 29.0277778 1.52083333 27.5 1.52083333 21.3888889"></polyline>
        <polyline stroke="#373737" stroke-width="2" points="28.8958333 42.7777778 28.8958333 35.1388889 15.2083333 35.1388889 15.2083333 42.7777778"></polyline>
        <path d="M31.9375,41.25 L36.5,41.25" stroke="#373737" stroke-width="2"></path>
        <polyline stroke="#373737" stroke-width="2" points="36.5 29.0277778 42.5833333 27.5 42.5833333 21.3888889"></polyline>
        <path d="M4.5625,47.3611111 L4.5625,51.9444444 C4.5625,52.7893056 5.24383333,53.4722222 6.08333333,53.4722222 L10.6458333,53.4722222 C11.4853333,53.4722222 12.1666667,52.7893056 12.1666667,51.9444444 L12.1666667,47.3611111" stroke="#373737" stroke-width="2"></path>
        <path d="M31.9375,47.3611111 L31.9375,51.9444444 C31.9375,52.7893056 32.6188333,53.4722222 33.4583333,53.4722222 L38.0208333,53.4722222 C38.8603333,53.4722222 39.5416667,52.7893056 39.5416667,51.9444444 L39.5416667,47.3611111" stroke="#373737" stroke-width="2"></path>
        <path d="M60.8333333,47.3611111 L60.8333333,51.9444444 C60.8333333,52.7893056 61.5146667,53.4722222 62.3541667,53.4722222 L66.9166667,53.4722222 C67.7561667,53.4722222 68.4375,52.7893056 68.4375,51.9444444 L68.4375,47.3611111" stroke="#373737" stroke-width="2"></path>
        <mask fill="white">
            <use xlink:href="#path-1"></use>
        </mask>
        <polygon stroke="#373737" stroke-width="2" mask="url(#mask-2)" points="12.1666667 29.0277778 31.9375 29.0277778 31.9375 21.3888889 12.1666667 21.3888889"></polygon>
        <path d="M36.5,7.63888889 L36.5,30.5555556 L38.0208333,32.0833333 C38.78125,32.8472222 39.5431875,33.7547222 39.5416667,35.1388889 C39.5416667,36.2388889 39.5462292,39.6275 39.5416667,41.25 L42.5833333,41.25 L42.5833333,47.3611111 L1.52083333,47.3611111 L1.52083333,41.25 L4.5625,41.25 C4.5579375,39.6275 4.5625,36.2388889 4.5625,35.1388889 C4.56097917,33.7547222 5.32291667,32.8472222 6.08333333,32.0833333 L7.60416667,30.5555556 L7.60416667,7.63888889" stroke="#373737" stroke-width="2" mask="url(#mask-2)"></path>
        <path d="M36.5,16.8055556 L34.6308958,15.0608333 C33.5130833,13.7622222 32.1245625,13.75 30.4166667,13.75 L13.6875,13.75 C11.9796042,13.75 10.5910833,13.7622222 9.47327083,15.0608333 L7.60416667,16.8055556" stroke="#373737" stroke-width="2" mask="url(#mask-2)"></path>
        <polyline stroke="#373737" stroke-width="2" mask="url(#mask-2)" points="1.52083333 18.3333333 1.52083333 1.52777778 42.5833333 1.52777778 42.5833333 18.3333333"></polyline>
        <polyline stroke="#373737" stroke-width="2" mask="url(#mask-2)" points="42.5833333 1.52777778 44.1041667 1.52777778 71.4791667 19.8611111 71.4791667 47.3611111 45.625 47.3611111"></polyline>
      </g>
    </g>
  </g>
</svg>
