<?xml version="1.0" encoding="UTF-8"?>
<svg width="69px" height="72px" viewBox="0 0 69 72" version="1.1" xmlns="http://www.w3.org/2000/svg" xmlns:xlink="http://www.w3.org/1999/xlink">
  <g stroke="none" stroke-width="1" fill="none" fill-rule="evenodd">
    <g transform="translate(-813.000000, -5308.000000)" fill="#fff" fill-rule="nonzero" stroke="#fff">
      <g transform="translate(814.000000, 5309.000000)">
        <path d="M0.247914638,42.9645689 C0.0980787661,42.9039805 0,42.7585271 0,42.5969049 L0,41.1187077 C0,40.9782766 0.0742663706,40.8483168 0.195256125,40.777026 L7.72134184,36.3424344 C7.82761856,36.279813 7.95698289,36.2702096 8.07134116,36.3164521 L33.6601062,46.6636499 C33.809942,46.7242382 33.9080208,46.8696916 33.9080208,47.0313138 L33.9080208,48.5095111 C33.9080208,48.6499421 33.8337544,48.779902 33.7127647,48.8511927 L26.186679,53.2857843 C26.0804023,53.3484057 25.9510379,53.3580091 25.8366797,53.3117667 L0.247914638,42.9645689 Z M0.793170078,42.3294889 L25.9526108,52.503083 L33.1148507,48.2828801 L33.1148507,47.2987299 L7.95541,37.1251358 L0.793170078,41.3453387 L0.793170078,42.3294889 Z"></path>
        <path d="M66.2297015,41.3453387 L59.0674616,37.1251358 L33.9080208,47.2987299 L33.9080208,48.2828801 L41.0702607,52.503083 L66.2297015,42.3294889 L66.2297015,41.3453387 Z M66.7749569,42.9645689 L41.1861919,53.3117667 C41.0718336,53.3580091 40.9424693,53.3484057 40.8361926,53.2857843 L33.3101069,48.8511927 C33.1891171,48.779902 33.1148507,48.6499421 33.1148507,48.5095111 L33.1148507,47.0313138 C33.1148507,46.8696916 33.2129295,46.7242382 33.3627654,46.6636499 L58.9515304,36.3164521 C59.0658887,36.2702096 59.195253,36.279813 59.3015297,36.3424344 L66.8276154,40.777026 C66.9486052,40.8483168 67.0228716,40.9782766 67.0228716,41.1187077 L67.0228716,42.5969049 C67.0228716,42.7585271 66.9247928,42.9039805 66.7749569,42.9645689 Z"></path>
        <path d="M10.9259207,34.355738 L11.2828414,35.0640644 L8.15195856,36.6416943 C8.03252661,36.7018752 7.89080691,36.6978085 7.77502248,36.6308779 L0.792986876,32.5948298 C0.637249843,32.5048041 0.561610086,32.3212335 0.608717922,32.1476262 L1.24633084,29.7978208 C1.27659609,29.6862838 1.35400946,29.5934976 1.4583183,29.5437366 L10.9336239,25.0235016 L11.2751383,25.7393833 L1.96414495,30.1812325 L1.45411684,32.0608475 L7.98642847,35.8369274 L10.9259207,34.355738 Z"></path>
        <path d="M56.1443183,25.7393833 L56.4858327,25.0235016 L65.9611383,29.5437366 C66.0654471,29.5934976 66.1428605,29.6862838 66.1731257,29.7978208 L66.8107387,32.1476262 C66.8578465,32.3212335 66.7822067,32.5048041 66.6264697,32.5948298 L59.6444341,36.6308779 C59.5286497,36.6978085 59.38693,36.7018752 59.267498,36.6416943 L56.1366151,35.0640644 L56.4935359,34.355738 L59.4330281,35.8369274 L65.9653398,32.0608475 L65.4553116,30.1812325 L56.1443183,25.7393833 Z"></path>
        <polygon points="33.1081427 48.5377704 33.9013127 48.5377704 33.9013127 69.6006743 33.1081427 69.6006743"></polygon>
        <path d="M59.1613804,45.6072795 L59.9545505,45.6072795 L59.9545505,59.1036556 C59.9545505,59.2647449 59.8571089,59.4098299 59.7079908,59.4707688 L34.0217,69.9677875 C33.9255429,70.0070833 33.8178065,70.0070833 33.7216494,69.9677875 L8.03535862,59.4707688 C7.88624054,59.4098299 7.78879891,59.2647449 7.78879891,59.1036556 L7.78879891,45.6072795 L8.58196898,45.6072795 L8.58196898,58.8373021 L33.8716747,69.1722514 L59.1613804,58.8373021 L59.1613804,45.6072795 Z"></path>
        <path d="M11.5009661,37.8474934 L10.707796,37.8474934 L10.707796,21.4155921 C10.707796,21.1355357 10.9902119,20.9437058 11.250552,21.0469272 L26.3207834,27.0220806 C26.4719399,27.0820122 26.5711976,27.2281414 26.5711976,27.3907455 L26.5711976,43.8226468 L25.7780275,43.8226468 L25.7780275,27.6601243 L11.5009661,21.9994527 L11.5009661,37.8474934 Z"></path>
        <path d="M26.5711976,27.6601243 L26.5711976,40.8349783 L25.7780275,40.8349783 L25.7780275,27.3907455 C25.7780275,27.2281414 25.8772852,27.0820122 26.0284417,27.0220806 L41.0986732,21.0469272 C41.3590132,20.9437058 41.6414291,21.1355357 41.6414291,21.4155921 L41.6414291,43.8226468 L40.848259,43.8226468 L40.848259,21.9994527 L26.5711976,27.6601243 Z"></path>
        <path d="M11.2537571,21.9812625 L10.9550051,21.2465067 L26.0732068,15.0994386 C26.168685,15.0606171 26.2755265,15.0604917 26.3710956,15.0990888 L41.5916494,21.2461569 L41.2946238,21.9816123 L26.2230853,15.8947264 L11.2537571,21.9812625 Z"></path>
        <path d="M20.3525208,5.15892404 L20.3525208,17.7292576 L19.5633188,17.7292576 L19.5633188,4.8955808 C19.5633188,4.73588506 19.6577643,4.59161975 19.8032819,4.52903753 L30.2602093,0.0318670104 C30.3590065,-0.0106223368 30.4706878,-0.0106223368 30.569485,0.0318670104 L41.0264124,4.52903753 C41.1719301,4.59161975 41.2663755,4.73588506 41.2663755,4.8955808 L41.2663755,16.8881584 L40.4771735,16.8881584 L40.4771735,5.15892404 L30.4148472,0.831458074 L20.3525208,5.15892404 Z"></path>
        <path d="M30.3387555,9.47927472 L40.6846647,4.79433471 L41.0118533,5.5168763 L30.5023498,10.2758968 C30.398369,10.3229824 30.279142,10.3229824 30.1751611,10.2758968 L19.6656576,5.5168763 L19.9928463,4.79433471 L30.3387555,9.47927472 Z"></path>
        <polygon points="55.8434453 20 56.1366151 20.6770101 41.3882301 26.3435319 41.0950603 25.6665217"></polygon>
        <polygon points="29.9563319 9.47598253 30.8733624 9.47598253 30.8733624 17.1179039 29.9563319 17.1179039"></polygon>
        <path d="M44.1105752,15.8918244 L35.2444237,19.4204207 L34.9511282,18.6834698 L43.9593263,15.0983411 C44.0507452,15.0619577 44.1524249,15.0608569 44.24461,15.0952526 L56.255419,19.5766635 C56.4105283,19.6345371 56.513368,19.7826731 56.513368,19.9482275 L56.513368,37.8738712 L55.7201979,37.8738712 L55.7201979,20.2235468 L44.1105752,15.8918244 Z"></path>
      </g>
    </g>
  </g>
</svg>
