<?xml version="1.0" encoding="UTF-8"?>
<svg width="352px" height="280px" viewBox="0 0 352 280" version="1.1" xmlns="http://www.w3.org/2000/svg" xmlns:xlink="http://www.w3.org/1999/xlink">
  <g stroke="none" stroke-width="1" fill="none" fill-rule="evenodd">
    <g transform="translate(-2377.000000, -5376.000000)">
      <g transform="translate(2365.000000, 5361.000000)">
        <polyline stroke="#7361C1" stroke-width="4" points="44 164 14 150.8 14 98"></polyline>
        <polyline stroke="#7361C1" stroke-width="4" points="150 237 150 196 82 196 82 237"></polyline>
        <polyline stroke="#7361C1" stroke-width="4" points="189 164 219 150.8 219 98"></polyline>
        <path d="M29,261 L29,285 C29,289.424 32.4048,293 36.6,293 L59.4,293 C63.5952,293 67,289.424 67,285 L67,261" stroke="#7361C1" stroke-width="4"></path>
        <path d="M165,261 L165,285 C165,289.424 168.4048,293 172.6,293 L195.4,293 C199.5952,293 203,289.424 203,285 L203,261" stroke="#7361C1" stroke-width="4"></path>
        <path d="M310,261 L310,285 C310,289.424 313.4048,293 317.6,293 L340.4,293 C344.5952,293 348,289.424 348,285 L348,261" stroke="#7361C1" stroke-width="4"></path>
        <polygon stroke="#7361C1" stroke-width="4" points="67 164 166 164 166 123 67 123"></polygon>
        <path d="M188.62963,49 L188.62963,171.307692 L196.222222,179.461538 C200.018519,183.538462 203.822407,188.381846 203.814815,195.769231 C203.814815,201.64 203.837593,219.725231 203.814815,228.384615 L219,228.384615 L219,261 L14,261 L14,228.384615 L29.1851852,228.384615 C29.1624074,219.725231 29.1851852,201.64 29.1851852,195.769231 C29.1775926,188.381846 32.9814815,183.538462 36.7777778,179.461538 L44.3703704,171.307692 L44.3703704,49" stroke="#7361C1" stroke-width="4"></path>
        <path d="M188,98 L178.685474,88.864 C173.114947,82.064 166.195368,82 157.684211,82 L74.3157895,82 C65.8046316,82 58.8850526,82.064 53.3145263,88.864 L44,98" stroke="#7361C1" stroke-width="4"></path>
        <polyline stroke="#7361C1" stroke-width="4" points="14 107 14 17 219 17 219 107"></polyline>
        <g transform="translate(114.651274, 85.939013) rotate(95.000000) translate(-114.651274, -85.939013) translate(38.151274, -21.560987)" fill="#7361C1">
          <polygon transform="translate(26.841537, 23.587305) rotate(102.000000) translate(-26.841537, -23.587305)" points="23.2250372 16.1018055 33.1110372 29.1278055 30.4580372 31.0728055 20.5720372 18.0458055"></polygon>
          <polygon points="142.399349 189.094195 152.285349 202.121195 149.632349 204.065195 139.746349 191.038195"></polygon>
          <polygon points="57.653 149 67.539 162.027 64.886 163.971 55 150.944"></polygon>
          <polygon points="64.653 13 74.539 26.026 71.886 27.971 62 14.944"></polygon>
          <polygon transform="translate(89.268176, 7.748907) rotate(80.000000) translate(-89.268176, -7.748907)" points="85.6516763 0.2634069 95.5376763 13.2894069 92.8846763 15.2344069 82.9986763 2.2074069"></polygon>
          <polygon transform="translate(103.626876, 20.974817) rotate(51.000000) translate(-103.626876, -20.974817)" points="100.010376 13.4893168 109.896376 26.5153168 107.243376 28.4603168 97.3573765 15.4333168"></polygon>
          <polygon points="55.0542211 99.4020265 52.7448288 112.463027 49.5642213 112.080027 51.8723917 99.0190265"></polygon>
          <polygon points="22.6755219 137.728389 20.3661296 150.789389 17.1855221 150.406389 19.4936925 137.345389"></polygon>
          <polygon points="31.8145205 76.8713521 39.7805205 91.1803521 36.9135205 92.7793521 28.9465205 78.4703521"></polygon>
          <polygon points="67.7310091 120.862393 75.6970091 135.171393 72.8300091 136.770393 64.8630091 122.461393"></polygon>
          <polygon transform="translate(6.288420, 32.850348) rotate(-40.000000) translate(-6.288420, -32.850348)" points="6.72791991 25.9078478 8.67191991 39.0528478 5.85091991 39.7928478 3.90491991 26.6478478"></polygon>
          <polygon points="57.2618196 54.8842742 47.4418196 68.3312742 44.7798196 66.4992742 54.5998196 53.0532742"></polygon>
          <polygon transform="translate(63.536143, 86.415664) rotate(73.000000) translate(-63.536143, -86.415664)" points="69.7771435 80.6076637 59.9571435 94.0546637 57.2951435 92.2226637 67.1151435 78.7766637"></polygon>
          <polygon points="138.242998 173.356963 128.422998 186.803963 125.760998 184.971963 135.580998 171.525963"></polygon>
          <polygon transform="translate(111.506478, 197.623207) rotate(-188.000000) translate(-111.506478, -197.623207)" points="117.747478 191.815207 107.927478 205.262207 105.265478 203.430207 115.085478 189.984207"></polygon>
          <polygon points="36.6953398 201.074012 26.8753398 214.521012 24.2133398 212.689012 34.0333398 199.243012"></polygon>
          <polygon points="21.998 113.183 10.366 125.182 8 122.998 19.633 111"></polygon>
          <polygon points="21.6255452 47.6772868 9.99254522 59.6752868 7.62854522 57.4912868 19.2605452 45.4922868"></polygon>
          <polygon points="46.412 12.13 30 9.156 30.66 6 47.072 8.973"></polygon>
          <polygon points="137.412 14.13 121 11.156 121.66 8 138.072 10.973"></polygon>
          <polygon points="45.9762213 130.150027 29.5642213 127.176027 30.2222213 124.019027 46.6352213 126.992027"></polygon>
          <polygon points="45.7752727 166.547547 29.3632727 163.573547 30.0212727 160.416547 46.4342727 163.389547"></polygon>
          <polygon points="19.7225841 92.1025328 4.98858409 84.5905328 6.55258409 81.7385328 21.2855841 89.2495328"></polygon>
          <polygon transform="translate(68.799877, 203.197221) rotate(106.000000) translate(-68.799877, -203.197221)" points="75.385377 208.379221 60.651377 200.867221 62.215377 198.015221 76.948377 205.526221"></polygon>
          <polygon points="21.3899098 61.1636371 36.3139098 54.0266371 37.7099098 56.9626371 22.7859098 64.0996371"></polygon>
          <polygon transform="translate(87.690545, 192.187980) rotate(-113.000000) translate(-87.690545, -192.187980)" points="79.5305451 194.28848 94.4545451 187.15148 95.8505451 190.08748 80.9265451 197.22448"></polygon>
          <polygon points="12.9398851 185.213106 27.8638851 178.076106 29.2598851 181.012106 14.3358851 188.149106"></polygon>
        </g>
        <polyline stroke="#7361C1" stroke-width="4" points="218 17 225.578947 17 362 115 362 260.918709 218.96085 260.918709"></polyline>
      </g>
    </g>
  </g>
</svg>
