<?xml version="1.0" encoding="UTF-8"?>
<svg width="28px" height="28px" viewBox="0 0 28 28" version="1.1" xmlns="http://www.w3.org/2000/svg" xmlns:xlink="http://www.w3.org/1999/xlink">
  <g stroke="none" stroke-width="1" fill="none" fill-rule="evenodd">
    <g transform="translate(-782.000000, -2796.000000)" fill="#FFFFFF" fill-rule="nonzero">
      <g transform="translate(782.000000, 2796.000000)">
        <path d="M26.4536653,0 L1.54541263,0 C0.692485016,0 0,0.69110189 0,1.54541263 L0,26.4536653 C0,27.307976 0.692485016,28 1.54541263,28 L14.9552789,28 L14.9552789,17.1567543 L11.3065929,17.1567543 L11.3065929,12.9303827 L14.9552789,12.9303827 L14.9552789,9.81373905 C14.9552789,6.197787 17.1632089,4.22775473 20.3895805,4.22775473 C21.9363762,4.22775473 23.2627939,4.34347626 23.6496081,4.39372983 L23.6496081,8.17335178 L21.4117105,8.17427386 C19.6574458,8.17427386 19.319041,9.00829876 19.319041,10.2314431 L19.319041,12.9289995 L23.5043799,12.9289995 L22.9571231,17.1549101 L19.31858,17.1549101 L19.31858,27.9986169 L26.4532042,27.9986169 C27.3070539,27.9986169 28,27.3056708 28,26.4536653 L28,1.54449055 C27.999539,0.69110189 27.307515,0 26.4536653,0 Z"></path>
      </g>
    </g>
  </g>
</svg>
