<?xml version="1.0" encoding="UTF-8"?>
<svg width="28px" height="28px" viewBox="0 0 28 28" version="1.1" xmlns="http://www.w3.org/2000/svg" xmlns:xlink="http://www.w3.org/1999/xlink">
    <!-- Generator: Sketch 51.3 (57544) - http://www.bohemiancoding.com/sketch -->
    <title>instagram</title>
    <desc>Created with Sketch.</desc>
    <defs></defs>
    <g id="Page-1" stroke="none" stroke-width="1" fill="none" fill-rule="evenodd">
        <g id="6-Контакты" transform="translate(-824.000000, -2795.000000)" fill="#FFFFFF" fill-rule="nonzero">
            <g id="instagram" transform="translate(824.000000, 2795.000000)">
                <path d="M20.4344766,0 L7.56552344,0 C3.39390625,0 0,3.39390625 0,7.56552344 L0,20.4344766 C0,24.6060937 3.39390625,28 7.56552344,28 L20.4344766,28 C24.6060937,28 28,24.6060937 28,20.4344766 L28,7.56552344 C28,3.39390625 24.6060937,0 20.4344766,0 Z M25.7379063,20.4344766 C25.7379063,23.3587813 23.3588359,25.7379063 20.4344766,25.7379063 L7.56552344,25.7379063 C4.64121875,25.7379063 2.26209375,23.3588359 2.26209375,20.4344766 L2.26209375,7.56552344 C2.26209375,4.64121875 4.64116406,2.26209375 7.56552344,2.26209375 L20.4344766,2.26209375 C23.3587813,2.26209375 25.7379063,4.64116406 25.7379063,7.56552344 L25.7379063,20.4344766 Z" id="Shape"></path>
                <path d="M20.9283712,13.5460351 C20.7223337,12.1564376 20.0884287,10.8969856 19.0952032,9.90365579 C18.1019778,8.91038254 16.8426583,8.27635425 15.4532634,8.07035167 C14.8206603,7.97654944 14.1792835,7.97654944 13.546737,8.07035167 C11.8296066,8.32503857 10.3144949,9.23317087 9.28040154,10.6275236 C8.24630821,12.0218764 7.81696901,13.7355643 8.07162914,15.452762 C8.32628927,17.1700163 9.23432611,18.6852873 10.6285323,19.7195459 C11.7603802,20.5591239 13.1024544,21 14.4862455,21 C14.8070188,21 15.1301128,20.9763372 15.4532068,20.9283888 C17.1703372,20.6737019 18.6854489,19.7655696 19.7195422,18.3712168 C20.7536922,16.9769207 21.1830314,15.2632894 20.9283712,13.5460351 Z M15.109792,18.612091 C14.0113969,18.77524 12.9152659,18.5004001 12.0233611,17.8388029 C11.1314563,17.1772057 10.550589,16.2078217 10.3877401,15.1093111 C10.2248346,14.0108005 10.4994192,12.9145542 11.1609469,12.0225557 C11.8225311,11.1305571 12.7917566,10.5496287 13.8902083,10.3867061 C14.09251,10.356703 14.2962268,10.3417014 14.4999436,10.3417014 C14.7036604,10.3417014 14.9074338,10.356703 15.1097354,10.3867627 C16.9341299,10.6573003 18.3416945,12.0649563 18.6122603,13.8895992 C18.9484864,16.1572693 17.377337,18.2758295 15.109792,18.612091 Z" id="Shape"></path>
                <path d="M21.7071025,5.29289755 C21.5208625,5.10670599 21.2631146,5 21,5 C20.7368854,5 20.4791375,5.10665764 20.2928975,5.29289755 C20.106706,5.47913746 20,5.73645022 20,6 C20,6.26354978 20.106706,6.52086254 20.2928975,6.70710245 C20.4791375,6.89329401 20.7368854,7 21,7 C21.2631146,7 21.5208625,6.89334236 21.7071025,6.70710245 C21.893294,6.52086254 22,6.26311464 22,6 C22,5.73683702 21.893294,5.47908911 21.7071025,5.29289755 Z" id="Shape"></path>
            </g>
        </g>
    </g>
</svg>