<?xml version="1.0" encoding="UTF-8"?>
<svg width="108px" height="74px" viewBox="0 0 108 74" version="1.1" xmlns="http://www.w3.org/2000/svg" xmlns:xlink="http://www.w3.org/1999/xlink">
  <g stroke="none" stroke-width="1" fill="#FFFFFF" fill-rule="evenodd">
    <g transform="translate(-387.000000, -43.000000)">
      <g transform="translate(387.000000, 43.000000)">
        <path d="M8.8939859,45.099645 L14.6736293,45.099645 L14.6736293,10.6358454 L8.8939859,10.6358454 L8.8939859,45.099645 Z M6.96743809,47.0261928 L16.6001771,47.0261928 L16.6001771,8.70929762 L6.96743809,8.70929762 L6.96743809,47.0261928 Z"></path>
        <path d="M10.4511571,73.3029558 L17.0463724,73.3029558 L17.0463724,62.7069428 L10.4511571,62.7069428 L10.4511571,73.3029558 Z M12.3777049,71.376408 L15.1198246,71.376408 L15.1198246,64.6334906 L12.3777049,64.6334906 L12.3777049,71.376408 Z"></path>
        <path d="M0,10.5960129 L9.63273901,10.5960129 L9.63273901,0 L0,0 L0,10.5960129 Z M1.9265478,8.66946511 L7.70619121,8.66946511 L7.70619121,1.9265478 L1.9265478,1.9265478 L1.9265478,8.66946511 Z"></path>
        <path d="M59.4079121,67.0416754 L65.1875555,67.0416754 L65.1875555,64.6334906 L59.4079121,64.6334906 L59.4079121,67.0416754 Z M57.4813643,68.9682232 L67.1141033,68.9682232 L67.1141033,62.7069428 L57.4813643,62.7069428 L57.4813643,68.9682232 Z"></path>
        <path d="M16.7323538,61.7563481 L57.1898576,61.7563481 L57.1898576,46.3439657 L16.7323538,46.3439657 L16.7323538,61.7563481 Z M14.8058059,63.6828959 L59.1164054,63.6828959 L59.1164054,44.4174178 L14.8058059,44.4174178 L14.8058059,63.6828959 Z"></path>
        <path d="M37.8009847,25.5156239 L36.3753394,22.0735252 L34.949694,25.5156239 L37.8009847,25.5156239 Z M38.456011,27.0953931 L34.2818241,27.0953931 L33.4855177,29.0219409 L31.3534714,29.0219409 L35.3606909,20.0313845 L37.4156752,20.0313845 L41.4355242,29.0219409 L39.2523174,29.0219409 L38.456011,27.0953931 Z"></path>
        <polygon points="46.1592774 20.0313845 48.239949 20.0313845 48.239949 27.3265789 52.7478568 27.3265789 52.7478568 29.0219409 46.1592774 29.0219409"></polygon>
        <path d="M76.992824,25.5156239 L75.5671786,22.0735252 L74.1415333,25.5156239 L76.992824,25.5156239 Z M77.6478503,27.0953931 L73.4736634,27.0953931 L72.6773569,29.0219409 L70.5453107,29.0219409 L74.5525301,20.0313845 L76.6075145,20.0313845 L80.6273635,29.0219409 L78.4441567,29.0219409 L77.6478503,27.0953931 Z"></path>
        <polygon points="88.6262479 25.4899366 87.4187306 26.7486145 87.4187306 29.0219409 85.3511167 29.0219409 85.3511167 20.0313845 87.4187306 20.0313845 87.4187306 24.2312587 91.4004767 20.0313845 93.7123341 20.0313845 89.987461 24.0386039 93.9304621 29.0219409 91.5030119 29.0219409"></polygon>
        <path d="M101.551353,20.0313845 L97.5441333,29.0217269 L99.6761795,29.0217269 L100.472486,27.0951791 L104.646459,27.0951791 L105.442979,29.0217269 L107.626186,29.0217269 L107.626186,29.0212987 L103.606337,20.0313845 L101.551353,20.0313845 Z M102.566001,22.0735252 L103.991647,25.5154099 L101.140142,25.5154099 L102.566001,22.0735252 Z"></path>
        <path d="M59.4079121,24.3661171 L65.1875555,24.3661171 L65.1875555,21.9579323 L59.4079121,21.9579323 L59.4079121,24.3661171 Z M57.4813643,26.2926649 L67.1141033,26.2926649 L67.1141033,20.0313845 L57.4813643,20.0313845 L57.4813643,26.2926649 Z"></path>
        <polygon points="57.4813643 28.9684257 59.411123 28.9684257 59.411123 20.0313845 57.4813643 20.0313845"></polygon>
      </g>
    </g>
  </g>
</svg>