<?xml version="1.0" encoding="UTF-8"?>
<svg width="26px" height="25px" viewBox="0 0 26 25" version="1.1" xmlns="http://www.w3.org/2000/svg" xmlns:xlink="http://www.w3.org/1999/xlink">
  <g stroke="none" stroke-width="1" fill="none" fill-rule="evenodd">
    <g transform="translate(-784.000000, -544.000000)" fill="#7361C1" fill-rule="nonzero">
      <g transform="translate(784.000000, 544.000000)">
        <path d="M9.47916667,0.120881042 L2.70835413e-08,4.45421437 L2.87760417,7.81424042 C6.12195188,6.37259188 9.36631854,4.93098937 12.6106771,3.48937062 L9.47916667,0.120881042 Z M16.5208333,0.120881042 L13.3893229,3.48937062 C16.6336571,4.93104625 19.8780779,6.37252417 23.1223958,7.81424042 L26,4.45421437 L16.5208333,0.120881042 Z M2.88606771,8.66905812 L2.70835396e-08,12.0375721 L9.47916667,16.3709054 L12.6106771,12.9939387 C9.37522083,11.53893 6.11687917,10.1342556 2.88606771,8.66905812 Z M23.1139323,8.66905812 C19.8751665,10.1166677 16.6312981,11.5533654 13.3893229,12.9939387 L16.5208333,16.3709054 L26,12.0375721 L23.1139323,8.66905812 Z M3.25,14.7120512 L3.25,20.699445 L12.4583333,24.7957992 L12.4583333,14.7543554 L10.2747396,17.10722 L9.74153646,17.6742908 L9.03059896,17.3526762 L3.25,14.7120512 Z M22.75,14.7120512 L16.969401,17.3526762 L16.2584635,17.6742908 L15.7252604,17.10722 L13.5416667,14.7543554 L13.5416667,24.7873492 L22.75,20.699445 L22.75,14.7120512 Z"></path>
      </g>
    </g>
  </g>
</svg>
