<?xml version="1.0" encoding="UTF-8"?>
<svg width="107px" height="121px" viewBox="0 0 107 121" version="1.1" xmlns="http://www.w3.org/2000/svg" xmlns:xlink="http://www.w3.org/1999/xlink">
    <!-- Generator: Sketch 52.1 (67048) - http://www.bohemiancoding.com/sketch -->
    <title>Group</title>
    <desc>Created with Sketch.</desc>
    <g id="Page-1" stroke="none" stroke-width="1" fill="none" fill-rule="evenodd">
        <g id="Group">
            <g id="map" fill="#7361C1">
                <polygon id="Combined-Shape" points="70.2941176 107 53 121 35.7058824 107 0 107 0 0 107 0 107 107"></polygon>
            </g>
            <g id="manufacture" transform="translate(32.000000, 33.000000)" fill="#FFFFFF" fill-rule="nonzero">
                <path d="M16.0430769,0 L0,7.37812538 L4.87046154,13.0968108 L21.34,5.73570531 L16.0413846,0.00170198971 L16.0430769,0 Z M27.9569231,0 L22.66,5.73570531 L39.1295385,13.0951088 L44,7.37642339 L27.9569231,0.00170198971 L27.9569231,0 Z M4.88569231,14.552012 L0,20.2826113 L16.0430769,27.6573327 L21.34,21.9097135 C15.8653846,19.4333185 10.3518462,17.0420229 4.884,14.548608 L4.88569231,14.552012 Z M39.1176923,14.552012 C33.6363077,17.0147911 28.1464615,19.4588483 22.66,21.9114155 L27.9603077,27.6590347 L44,20.2843133 L39.116,14.55031 L39.1176923,14.552012 Z M5.5,24.8337318 L5.5,35.0269482 L21.0827692,42 L21.0827692,24.9069174 L17.3884615,28.9116992 L16.4864615,29.8767273 L15.2832308,29.3303886 L5.5,24.8371358 L5.5,24.8337318 Z M38.5,24.8337318 L28.7184615,29.3269846 L27.5135385,29.8750253 L26.6115385,28.9099972 L22.9172308,24.9052154 L22.9172308,41.9812781 L38.5,35.0269482 L38.5,24.8371358 L38.5,24.8337318 Z" id="Shape"></path>
            </g>
        </g>
    </g>
</svg>