<?xml version="1.0" encoding="UTF-8"?>
<svg width="24px" height="23px" viewBox="0 0 24 23" version="1.1" xmlns="http://www.w3.org/2000/svg" xmlns:xlink="http://www.w3.org/1999/xlink">
  <defs>
    <polygon points="15.8407135 13.3397444 23.5634595 13.3397444 23.5634595 21.0543278 15.8407135 21.0543278"></polygon>
  </defs>
  <g stroke="none" stroke-width="1" fill="none" fill-rule="evenodd">
    <g transform="translate(-387.000000, -392.000000)">
      <g transform="translate(387.000000, 392.000000)">
        <polygon fill="#7361C1" points="3.58092973 -6.38888889e-05 1.75757838 1.79521389 7.22503784 7.18104722 9.04774054 5.38576944"></polygon>
        <path d="M6.18810811,8.29993333 L0.720648649,2.91473889 C0.720648649,2.91473889 -2.92605405,7.70193333 6.18810811,16.6796 C15.3029189,25.65535 20.1632432,22.0641556 20.1632432,22.0641556 L14.6938378,16.6796 C14.6938378,16.6796 12.8717838,17.2776 9.22637838,13.6870444 C5.58097297,10.0964889 6.18875676,8.30057222 6.18810811,8.29993333" fill="#7361C1"></path>
        <mask fill="white">
            <use xlink:href="#path-1"></use>
        </mask>
        <g></g>
        <polygon fill="#7361C1" mask="url(#mask-2)" points="23.5635243 18.7262167 21.308173 21.0543278 15.8407135 15.6678556 18.0960649 13.3397444"></polygon>
      </g>
    </g>
  </g>
</svg>
