<svg width="352" height="280" viewBox="0 0 352 280" xmlns="http://www.w3.org/2000/svg"><g fill="none" fill-rule="evenodd"><path stroke="#7361C1" stroke-width="4" d="M32 149L2 135.8V83m136 139v-41H70v41m107-73l30-13.2V83M17 246v24c0 4.424 3.405 8 7.6 8h22.8c4.195 0 7.6-3.576 7.6-8v-24m98 0v24c0 4.424 3.405 8 7.6 8h22.8c4.195 0 7.6-3.576 7.6-8v-24m107 0v24c0 4.424 3.405 8 7.6 8h22.8c4.195 0 7.6-3.576 7.6-8v-24M55 149h99v-41H55z"/><path d="M176.63 34v122.308l7.592 8.154c3.797 4.076 7.6 8.92 7.593 16.307 0 5.871.023 23.956 0 32.616H207V246H2v-32.615h15.185c-.023-8.66 0-26.745 0-32.616-.007-7.387 3.796-12.23 7.593-16.307l7.592-8.154V34" stroke="#7361C1" stroke-width="4"/><path d="M176 83l-9.315-9.136c-5.57-6.8-12.49-6.864-21-6.864h-83.37c-8.51 0-15.43.064-21 6.864L32 83" stroke="#7361C1" stroke-width="4"/><path stroke="#7361C1" stroke-width="4" d="M2 92V2h205v90"/><path d="M191.843 36.999l-5.646-15.347 3.106-1.085 5.645 15.348zM15.624 129.476L1.785 138.19.08 135.377l13.839-8.713zm47.328-80.929l-13.84 8.713-1.705-2.813 13.84-8.713zm134.872 18.826l-13.838 8.713-1.706-2.812 13.839-8.713zm7.341 32.121L194.181 87.38l2.474-2.168 10.984 12.115zm-11.498 10.193l-15.48-5.27 1.112-3.097 15.48 5.272zM112.588 50.28l-12.81-3.438.658-3.135 12.81 3.437zM77.229 14.685l-12.81-3.44.659-3.134 12.81 3.437zm59.829 14.408l-14.949 6.689-1.343-2.996 14.949-6.69zM90.104 61.039l-14.949 6.688-1.343-2.995 14.949-6.69zm98.971-57.16l-9.652 9.132-2.225-1.887 9.652-9.133zM156.743 56.36l-12.54-10.955 2.058-2.492L158.8 53.868zm-36.855 10.48l6.81-15.194 2.985 1.238-6.81 15.194zm-88.224 59.867l-12.54-10.954 2.057-2.493 12.539 10.955zM3.693 92.029l13.943 9.103-1.69 2.754-13.942-9.103zm9.21-68.899L.363 12.176 2.42 9.683l12.539 10.955zm88.837-6.98L90.8 3.515l2.382-2.167 10.939 12.634zm65.289 5.337L156.091 8.853l2.381-2.165 10.94 12.634zm33.251 27.791l4.394-16.09 3.086.932-4.392 16.09zm-9.923 90.479l4.393-16.09 3.087.932-4.392 16.09zM82.748 38.557l4.393-16.09 3.087.93-4.392 16.092zm-36.242-3.372l4.393-16.09 3.088.93-4.392 16.092zm76.433-19.465l8.767-14.024 2.705 1.807-8.766 14.022zM3.698 47.73l11.064 12.293-2.483 2.102L1.217 49.833zm149.916-27.653l5.81 15.49-3.047 1.134-5.809-15.49zM10.199 79.225l11.988-11.4 2.235 2.362-11.988 11.4zM30.774.848l5.809 15.489-3.047 1.135-5.809-15.49z" fill="#7361C1"/><path stroke="#7361C1" stroke-width="4" d="M206 2h7.579L350 100v145.919H206.96"/></g></svg>