<svg width="66" height="66" viewBox="0 0 66 66" xmlns="http://www.w3.org/2000/svg"><g stroke="#C0C0C0" stroke-width="2" fill="none" fill-rule="evenodd"><path d="M16.41 39.875v11m19.142-11v11m-19.142-11c0 5.316 4.285 9.625 9.57 9.625 5.287 0 9.572-4.309 9.572-9.625 0-5.315-4.285-9.625-9.571-9.625s-9.572 4.31-9.572 9.625z" stroke-linejoin="round"/><path d="M43.756 9.625c0 3.798 3.06 6.875 6.837 6.875 3.777 0 6.837-3.077 6.837-6.875 0-3.797-3.06-6.875-6.837-6.875-3.777 0-6.837 3.078-6.837 6.875z"/><path d="M1.367 9.625c0 4.556 3.674 8.25 8.204 8.25 4.532 0 8.204-3.694 8.204-8.25 0-4.555-3.672-8.25-8.204-8.25-4.53 0-8.204 3.695-8.204 8.25zm45.124-5.5H15.042m30.082 9.625H16.409M4.828 16.355L16.41 38.5m2.734-22l9.572 11" stroke-linejoin="round"/><path d="M46.491 15.125v9.625h8.204v-9.625m0 9.625h1.367l4.102 4.125-4.102 5.5m-9.571-9.625h-1.367l-4.102 4.125 4.102 5.5"/><path stroke-linejoin="round" mask="url(#mask-2)" d="M45.124 53.625h13.673V41.25H45.124zm13.673 5.5h-2.735m-46.489 0H6.838m10.939 0h-2.735m10.938 0h-2.734m10.939 0H31.45m10.939 0h-2.735m10.939 0h-2.735"/><path d="M64.267 59.125c0-3.037-2.45-5.5-5.47-5.5H6.838c-3.02 0-5.47 2.463-5.47 5.5 0 3.038 2.45 5.5 5.47 5.5h51.96c3.02 0 5.469-2.462 5.469-5.5z" stroke-linejoin="round" mask="url(#mask-2)"/></g></svg>