<svg width="306" height="307" viewBox="0 0 306 307" xmlns="http://www.w3.org/2000/svg"><g fill="none" fill-rule="evenodd"><path d="M74 183v69m91-65v66m-91-67c0 25.405 20.371 46 45.5 46s45.5-20.595 45.5-46-20.371-46-45.5-46S74 160.595 74 186z" stroke="#7361C1" stroke-width="4" stroke-linejoin="round"/><path d="M205 41c0 18.23 14.77 33 33 33s33-14.77 33-33-14.77-33-33-33-33 14.77-33 33z" stroke="#7361C1" stroke-width="4"/><path d="M2 41.5C2 63.31 19.69 81 41.5 81 63.317 81 81 63.31 81 41.5S63.317 2 41.5 2C19.69 2 2 19.69 2 41.5zM218 15H71m141 46H77m27 1L74 14m50 48L94 14m50 48l-30-48m50 48l-30-48m50 48l-30-48m50 48l-30-48m32 17l-12-17M18 74l56 109M67 74l77 73" stroke="#7361C1" stroke-width="4" stroke-linejoin="round"/><path stroke="#7361C1" stroke-width="4" d="M219 67v48h38V67m0 48h6.5l19.5 20.143L263.5 162M218 115h-6.5L192 135.143 211.5 162"/><path stroke="#7361C1" stroke-width="4" stroke-linejoin="round" d="M206 252h66v-60h-66zm98 26.5c0-14.635-11.758-26.5-26.26-26.5H28.26C13.759 252 2 263.865 2 278.5S13.758 305 28.26 305h249.48c14.502 0 26.26-11.865 26.26-26.5z"/><path d="M153.271 295.955l-12.673 10.335-2.036-2.584 12.674-10.334zm-62.807-7.736l-1.938 16.238-3.259-.444 1.938-16.239zm187.518.438l-1.938 16.238-3.258-.445 1.938-16.238zm-87.1-.777l-1.938 16.239-3.258-.445 1.938-16.238zm-47.736-35.57l7.22 14.673-2.976 1.403-7.219-14.674zm-7.229 25.969l-15.226-6.156 1.15-3.067 15.228 6.156zm-99.921 19.426l-15.227-6.156 1.15-3.067 15.228 6.156zm183.148-.367l-15.226-6.156 1.15-3.067 15.228 6.156zM68.072 252.694l-4.21 15.827-3.173-.842 4.21-15.827zm183.869-.381l-4.21 15.827-3.172-.841 4.208-15.828zM17.53 276.428l-16.703.552-.185-3.215 16.703-.55zm183.174.339l-16.703.551-.184-3.214 16.702-.55zm-76.831 14.779l-16.702.55-.184-3.213 16.703-.552zm-77.072 12.032l14.947-7.668 1.434 2.862-14.946 7.667zm183.868.328l14.946-7.668 1.435 2.861-14.947 7.668zm-73.99-25.672l15.838 5.23-1.092 3.033-15.839-5.228zM92.11 276.09l-9.74-13.54 2.667-1.814 9.741 13.54zm183.175.339l-9.74-13.54 2.667-1.814 9.74 13.54zM45.668 265.633l-4.563 15.896-3.098-.99 4.562-15.896zm183.868.327l-4.563 15.897-3.098-.991 4.562-15.896zm-52.982-12.232l-4.563 15.897-3.098-.991 4.562-15.896zM72.425 281.146l-16.081 3.878-.755-3.162 16.081-3.879zm183.868.327l-16.082 3.878-.755-3.162 16.082-3.878zM37.89 252.782l-10.286 12.957-2.541-2.027 10.285-12.957zm183.148-.367l-10.285 12.957-2.542-2.027 10.285-12.957zm-116.275 8.774l14.167-9.134 1.74 2.865-14.165 9.134zm183.867 16.327l14.167-9.133 1.741 2.865-14.165 9.134z" fill="#7361C1"/></g></svg>