<svg width="68" height="57" viewBox="0 0 68 57" xmlns="http://www.w3.org/2000/svg"><g stroke="#C0C0C0" stroke-width="2" fill="none" fill-rule="evenodd"><path d="M8.174 45.868c0-.392-1.39-.593-2.281-.593-2.704 0-4.893 2.21-4.893 4.936V5.342C1 2.617 3.19 1 5.893 1c.89 0 2.28.426 2.28 1.447v43.421zm45.913-18.815V6.789H8.174" stroke-linejoin="round"/><path d="M1 50.21C1 53.409 3.57 56 6.74 56h47.347V38.632" stroke-linejoin="round"/><path d="M64.603 22.354c1.514 1.527 1.758 2.96 1.656 3.753L46.983 45.549c-3.488 3.519-8.672 3.22-8.672 3.22s-.296-5.229 3.192-8.747L60.78 20.579c.786-.103 2.208.145 3.72 1.67l.103.105zm-6.901 1.226l5.48 5.527"/><path stroke-linejoin="round" d="M34 47.316H18.217V15.474h25.826v10.131H36.87v10.132h-7.174v4.342m7.174-14.474h-8.61m-10.043 0h7.174m4.305 10.132v-5.79"/></g></svg>