<svg width="365" height="383" viewBox="0 0 365 383" xmlns="http://www.w3.org/2000/svg"><g fill="none" fill-rule="evenodd"><path stroke="#7361C1" stroke-width="4" stroke-linejoin="round" d="M2.302 233.08l139.09 56.636 40.91-24.273v-8.091L43.21 200.716 2.3 224.989z"/><path stroke="#7361C1" stroke-width="4" stroke-linejoin="round" d="M362.302 233.08L223.21 289.716l-40.91-24.273v-8.091l139.092-56.636 40.909 24.273zM60.48 189.733l-17.082 8.628-38.096-22.073 3.479-12.85 51.7-24.722m245.821 51.017l17.083 8.628 38.096-22.073-3.48-12.85-51.7-24.722"/><path d="M182.302 265.716v115m142-131v73.688l-140 57.312-140-57.312v-73.688m16-42.533v-89.467l82 32.533v89.467m82 0v-122l-82 32.533v73.2" stroke="#7361C1" stroke-linejoin="round" stroke-width="4"/><path stroke="#7361C1" stroke-width="4" stroke-linejoin="round" d="M225.28 118.119l-82.979-33.403-82.42 33.403"/><path stroke="#7361C1" stroke-width="4" stroke-linejoin="round" d="M223.302 92.154V27.108l-57.5-24.392-57.5 24.392v69.608"/><path stroke="#7361C1" stroke-width="4" stroke-linejoin="round" d="M223.302 28.716l-57.5 26-57.5-26m198 80l-82 34m-58-91v42m25 10.52l49.286-19.52 65.714 24.4v97.6m-220 12l-26-53m52 63l-52-100m80 112l-61-116m63 77l-35-66"/><path fill="#7361C1" d="M251.692 142.323l9.887 13.026-2.654 1.945-9.886-13.027zm32.448 30.764l9.886 13.027-2.653 1.944-9.886-13.027zm4.536-47.379l9.886 13.026-2.653 1.945-9.886-13.027zm-6.66 19.471l-2.573 16.22-3.247-.43 2.573-16.222zm-1.336 61.365l-1.89 13.061-2.602-.383 1.889-13.06zm-24.109-4.674l7.966 14.309-2.867 1.599-7.967-14.31zm-25.614-63.277l1.944 13.145-2.821.74-1.946-13.145zm77.018-22.315l-6.48 10.954-2.444-1.994 6.48-10.954zm-30.42 71.564l-9.82 13.447-2.662-1.832 9.82-13.446zm-33.752 33.871l-11.632 11.999-2.366-2.184 11.633-11.998zm-2.251-56.921L229.92 176.79l-2.364-2.184 11.632-12zm60.371 32.413l-16.48 3.251-.59-3.146 16.48-3.25zM273.94 138.83l-16.413-2.974.66-3.156 16.412 2.973zm-2.219 38.28l-16.412-2.975.658-3.157 16.413 2.973zm-29.124 34.302l-14.734-7.512 1.564-2.852 14.733 7.51zm-6.441-21.172l14.924-7.137 1.396 2.936-14.924 7.137zm69.244-18.693l-12.924-10.167 2.09-2.516 12.925 10.166z"/></g></svg>