<svg width="73" height="55" viewBox="0 0 73 55" xmlns="http://www.w3.org/2000/svg"><g stroke="#7361C1" stroke-width="2" fill="none" fill-rule="evenodd"><path d="M12.167 41.25H7.604m0-12.222L1.521 27.5v-6.111m27.375 21.389v-7.64H15.208v7.64m16.73-1.528H36.5m0-12.222l6.083-1.528v-6.111M4.563 47.361v4.583c0 .845.68 1.528 1.52 1.528h4.563c.84 0 1.52-.683 1.52-1.528v-4.583m19.772 0v4.583c0 .845.68 1.528 1.52 1.528h4.563c.84 0 1.52-.683 1.52-1.528v-4.583m21.292 0v4.583c0 .845.682 1.528 1.521 1.528h4.563c.84 0 1.52-.683 1.52-1.528v-4.583"/><path mask="url(#mask-2)" d="M12.167 29.028h19.77v-7.64h-19.77z"/><path d="M36.5 7.639v22.917l1.52 1.527c.761.764 1.523 1.672 1.522 3.056 0 1.1.004 4.488 0 6.111h3.041v6.111H1.521V41.25h3.042c-.005-1.623 0-5.011 0-6.111-.002-1.384.76-2.292 1.52-3.056l1.521-1.527V7.639" mask="url(#mask-2)"/><path d="M36.5 16.806l-1.87-1.745c-1.117-1.299-2.505-1.311-4.213-1.311h-16.73c-1.707 0-3.096.012-4.214 1.31l-1.869 1.746" mask="url(#mask-2)"/><path mask="url(#mask-2)" d="M1.52 18.333V1.528h41.063v16.805"/><path mask="url(#mask-2)" d="M42.583 1.528h1.521L71.48 19.86v27.5H45.625"/></g></svg>