<svg width="385" height="325" viewBox="0 0 385 325" xmlns="http://www.w3.org/2000/svg"><g fill="none" fill-rule="evenodd"><path d="M44 263.676c0-2.287-8.14-3.46-13.356-3.46C14.818 260.216 2 273.106 2 289V27.324C2 11.429 14.818 2 30.644 2 35.86 2 44 4.482 44 10.441v253.235zM312 154V36H44M2 289.333C2 307.926 17.006 323 35.514 323H312V222" stroke="#7361C1" stroke-width="4" stroke-linejoin="round"/><path d="M373.235 126.495c8.82 8.93 10.24 17.308 9.647 21.946L270.565 262.132c-20.324 20.575-50.529 18.831-50.529 18.831s-1.722-30.578 18.601-51.153l112.318-113.691c4.582-.601 12.866.846 21.678 9.767l.602.61z" stroke="#7361C1" stroke-width="4"/><path fill="#7361C1" d="M335.308 182.843l-1.937 16.237-3.26-.443 1.938-16.239zM290.653 222l9.886 13.027-2.653 1.944L288 223.944zm10.111-57.308l15.386 5.54-1.166 3.076-15.386-5.54zm22.138 19.519l-15.23 6.15-1.303-3.006 15.23-6.15zm-68 80l-15.23 6.15-1.303-3.006 15.23-6.15zm-16.409-31.828l-1.89 13.061-2.603-.383L235.889 232zM254.868 214l7.966 14.309-2.867 1.599L252 215.599zm87.955-71l1.944 13.145-2.821.74L340 143.74zM233.998 260.183l-11.632 11.999-2.366-2.184L231.633 258zm82.999-58.998l-11.633 11.998-2.364-2.184L314.632 199zm-28.926 43.961l-16.481 3.251-.59-3.146L287.481 242zm68.341-70.016L340 172.156l.66-3.156 16.412 2.973zm-64 31.001L276 203.157l.658-3.157 16.413 2.973zm-41.187 29.765l7.76 14.605-2.916 1.44-7.76-14.604zm77-87l7.76 14.605-2.916 1.44-7.76-14.604zm-46.418 66.594l-8.874 13.96-2.74-1.75 8.874-13.96zm5.792-24.99l3.846-16.41 3.242.852-3.845 16.41z"/><path d="M333 134l32 32" stroke="#7361C1" stroke-width="4"/><path d="M105 169l-30-61m50 61l-30-61m50 61l-30-61m50 61l-30-61m50 61l-30-61m50 61l-30-61m50 61l-30-61m50 61l-30-61m50 61l-30-61" stroke="#7361C1" stroke-width="4" stroke-linejoin="round"/><path d="M268 168v-59H73v59h195zm-99-59V69h-61v40h61zm0 139v-80h-61v80h61z" stroke="#7361C1" stroke-width="4"/><path d="M169 287v-40h-61v40h61z" stroke="#7361C1" stroke-width="4"/></g></svg>