<svg width="69" height="72" viewBox="0 0 69 72" xmlns="http://www.w3.org/2000/svg"><g fill="#7361C1" stroke="#7361C1"><path d="M1.248 43.965A.397.397 0 0 1 1 43.597v-1.478c0-.14.074-.27.195-.342l7.526-4.435a.397.397 0 0 1 .35-.026l25.59 10.348c.149.06.247.206.247.367v1.479c0 .14-.074.27-.195.341l-7.526 4.435a.397.397 0 0 1-.35.026L1.247 43.965zm.545-.636l25.16 10.174 7.162-4.22v-.984L8.955 38.125l-7.162 4.22v.984z"/><path d="M67.23 42.345l-7.163-4.22L34.908 48.3v.984l7.162 4.22L67.23 43.33v-.984zm.545 1.62L42.186 54.312a.397.397 0 0 1-.35-.026L34.31 49.85a.397.397 0 0 1-.195-.341V48.03c0-.161.098-.307.248-.367l25.589-10.348a.397.397 0 0 1 .35.026l7.526 4.435a.397.397 0 0 1 .195.342v1.478a.397.397 0 0 1-.248.368zm-55.849-8.609l.357.708-3.131 1.578a.397.397 0 0 1-.377-.011l-6.982-4.036a.397.397 0 0 1-.184-.447l.637-2.35a.397.397 0 0 1 .212-.254l9.476-4.52.341.715-9.31 4.442-.51 1.88 6.531 3.776 2.94-1.481z"/><path d="M57.144 26.74l.342-.716 9.475 4.52c.104.05.182.142.212.254l.638 2.35a.397.397 0 0 1-.185.447l-6.982 4.036a.397.397 0 0 1-.377.01l-3.13-1.577.357-.708 2.939 1.48 6.532-3.775-.51-1.88-9.31-4.442zM34.108 49.538h.793V70.6h-.793z"/><path d="M60.161 46.607h.794v13.497a.397.397 0 0 1-.247.367L35.022 70.968a.397.397 0 0 1-.3 0L9.035 60.47a.397.397 0 0 1-.246-.367V46.607h.793v13.23l25.29 10.335 25.29-10.335v-13.23zm-47.66-7.76h-.793V22.416c0-.28.282-.472.543-.37l15.07 5.976c.15.06.25.206.25.369v16.432h-.793V28.66L12.501 23v15.847z"/><path d="M27.571 28.66v13.175h-.793V28.391c0-.163.1-.309.25-.369l15.07-5.975a.397.397 0 0 1 .543.369v22.407h-.793V22.999L27.571 28.66z"/><path d="M12.254 22.981l-.299-.734 15.118-6.148a.397.397 0 0 1 .298 0l15.22 6.147-.296.736-15.072-6.087-14.97 6.086z"/><path d="M21.353 6.159v12.57h-.79V5.896a.4.4 0 0 1 .24-.367L31.26 1.032a.391.391 0 0 1 .31 0l10.456 4.497c.146.063.24.207.24.367v11.992h-.789V6.158L31.415 1.832 21.353 6.16z"/><path d="M31.339 10.48l10.346-4.686.327.723-10.51 4.759a.397.397 0 0 1-.327 0l-10.51-4.76.328-.722 10.346 4.685zM56.843 21l.294.677-14.749 5.667-.293-.677z"/><path d="M30.956 10.476h.917v7.642h-.917zm14.154 6.416l-8.866 3.528-.293-.737 9.008-3.585a.397.397 0 0 1 .286-.003l12.01 4.482a.397.397 0 0 1 .258.371v17.926h-.793v-17.65l-11.61-4.332z"/></g></svg>