<svg width="28" height="28" viewBox="0 0 28 28" xmlns="http://www.w3.org/2000/svg"><g fill="#FFF"><path d="M20.434 0H7.566C3.394 0 0 3.394 0 7.566v12.868C0 24.606 3.394 28 7.566 28h12.868C24.606 28 28 24.606 28 20.434V7.566C28 3.394 24.606 0 20.434 0zm5.304 20.434a5.31 5.31 0 0 1-5.304 5.304H7.566a5.31 5.31 0 0 1-5.304-5.304V7.566a5.31 5.31 0 0 1 5.304-5.304h12.868a5.31 5.31 0 0 1 5.304 5.304v12.868z"/><path d="M20.928 13.546a6.454 6.454 0 0 0-1.833-3.642 6.453 6.453 0 0 0-3.642-1.834 6.494 6.494 0 0 0-1.906 0 6.456 6.456 0 0 0-4.267 2.558 6.457 6.457 0 0 0-1.208 4.825 6.457 6.457 0 0 0 2.557 4.267 6.45 6.45 0 0 0 4.824 1.208 6.456 6.456 0 0 0 4.267-2.557 6.457 6.457 0 0 0 1.208-4.825zm-5.818 5.066a4.129 4.129 0 0 1-3.087-.773 4.13 4.13 0 0 1-1.635-2.73 4.13 4.13 0 0 1 .773-3.086 4.13 4.13 0 0 1 3.339-1.681c.204 0 .407.015.61.045a4.134 4.134 0 0 1 3.502 3.503 4.162 4.162 0 0 1-3.502 4.722zm6.597-13.319A1.007 1.007 0 0 0 21 5c-.263 0-.52.107-.707.293A1.006 1.006 0 0 0 20 6c0 .264.107.52.293.707.186.186.444.293.707.293.263 0 .52-.107.707-.293.186-.186.293-.444.293-.707 0-.263-.107-.52-.293-.707z"/></g></svg>