<svg width="108" height="74" viewBox="0 0 108 74" xmlns="http://www.w3.org/2000/svg"><g fill="#FFF" fill-rule="evenodd"><path d="M8.894 45.1h5.78V10.636h-5.78V45.1zm-1.927 1.926H16.6V8.71H6.967v38.317zm3.484 26.277h6.595V62.707h-6.595v10.596zm1.927-1.927h2.742v-6.743h-2.742v6.743z"/><path d="M0 10.596h9.633V0H0v10.596zm1.927-1.927h5.78V1.927h-5.78v6.742zm57.481 58.373h5.78v-2.409h-5.78v2.409zm-1.927 1.926h9.633v-6.261h-9.633v6.261z"/><path d="M16.732 61.756H57.19V46.344H16.732v15.412zm-1.926 1.927h44.31V44.417h-44.31v19.266zm22.995-38.167l-1.426-3.442-1.425 3.442h2.85zm.655 1.58h-4.174l-.796 1.926h-2.133l4.008-8.99h2.055l4.02 8.99h-2.184l-.796-1.927zm7.704-7.065h2.08v7.296h4.508v1.695h-6.589zm30.833 5.485l-1.426-3.442-1.425 3.442h2.85zm.655 1.58h-4.174l-.797 1.926h-2.132l4.008-8.99h2.055l4.02 8.99h-2.184l-.796-1.927zm10.978-1.606l-1.207 1.259v2.273H85.35v-8.99h2.068v4.2l3.981-4.2h2.312l-3.725 4.007 3.943 4.983h-2.427zm12.925-5.459l-4.007 8.99h2.132l.796-1.926h4.174l.797 1.927h2.183l-4.02-8.99h-2.055zm1.015 2.043l1.426 3.441h-2.852l1.426-3.441zm-43.158 2.292h5.78v-2.408h-5.78v2.408zm-1.927 1.927h9.633V20.03h-9.633v6.262z"/><path d="M57.481 28.968h1.93v-8.937h-1.93z"/></g></svg>