<svg width="26" height="25" viewBox="0 0 26 25" xmlns="http://www.w3.org/2000/svg"><path d="M9.48.12L0 4.455l2.878 3.36L12.61 3.49 9.479.121zm7.04 0l-3.13 3.37 9.732 4.324L26 4.454 16.52.121zM2.887 8.67L0 12.037l9.48 4.333 3.13-3.377c-3.235-1.455-6.493-2.86-9.724-4.325zm20.228 0c-3.239 1.447-6.483 2.883-9.725 4.324l3.132 3.377L26 12.038l-2.886-3.369zM3.25 14.711V20.7l9.208 4.097V14.754l-2.183 2.353-.533.567-.711-.321-5.781-2.64zm19.5 0l-5.78 2.64-.712.322-.533-.567-2.183-2.353v10.033L22.75 20.7v-5.987z" fill="#7361C1"/></svg>