<svg width="107" height="121" viewBox="0 0 107 121" xmlns="http://www.w3.org/2000/svg"><title>Group</title><g fill="none" fill-rule="evenodd"><path d="M70.294 107L53 121l-17.294-14H0V0h107v107z" fill="#7361C1"/><path d="M48.043 33L32 40.378l4.87 5.719 16.47-7.361-5.299-5.734.002-.002zm11.914 0l-5.297 5.736 16.47 7.36 4.87-5.72-16.043-7.374V33zM36.886 47.552L32 53.282l16.043 7.375 5.297-5.747c-5.475-2.477-10.988-4.868-16.456-7.361l.002.003zm34.232 0c-5.482 2.463-10.972 4.907-16.458 7.36l5.3 5.747L76 53.284l-4.884-5.734.002.002zM37.5 57.834v10.193L53.083 75V57.907l-3.695 4.005-.902.965-1.203-.547-9.783-4.493v-.003zm33 0l-9.782 4.493-1.204.548-.902-.965-3.695-4.005v17.076L70.5 68.027V57.834z" fill="#FFF" fill-rule="nonzero"/></g></svg>